# This file uses centimeters as units for non-parametric coordinates.

mtllib CuboPasserella.mtl
g default
v -0.500000 0.000000 0.500000
v 0.500000 0.000000 0.500000
v -0.500000 1.000000 0.500000
v 0.500000 1.000000 0.500000
v -0.500000 1.000000 -0.500000
v 0.500000 1.000000 -0.500000
v -0.500000 0.000000 -0.500000
v 0.500000 0.000000 -0.500000
v 0.432805 0.000000 0.500000
v 0.432805 0.000000 -0.500000
v 0.432805 1.000000 -0.500000
v 0.432805 1.000000 0.500000
v 0.345776 0.000000 0.500000
v 0.345776 0.000000 -0.500000
v 0.345776 1.000000 -0.500000
v 0.345776 1.000000 0.500000
v -0.435664 0.000000 0.500000
v -0.435664 0.000000 -0.500000
v -0.435664 1.000000 -0.500000
v -0.435664 1.000000 0.500000
v -0.354358 0.000000 0.500000
v -0.354358 1.000000 0.500000
v -0.354358 1.000000 -0.500000
v -0.354358 0.000000 -0.500000
v 0.345776 0.050000 0.450000
v 0.345776 0.050000 -0.450000
v 0.432805 0.050000 -0.450000
v 0.432805 0.050000 0.450000
v 0.345776 0.950000 -0.450000
v 0.432805 0.950000 -0.450000
v 0.345776 0.950000 0.450000
v 0.432805 0.950000 0.450000
v -0.435664 0.050000 0.450000
v -0.435664 0.050000 -0.450000
v -0.354358 0.050000 -0.450000
v -0.354358 0.050000 0.450000
v -0.435664 0.950000 -0.450000
v -0.354358 0.950000 -0.450000
v -0.435664 0.950000 0.450000
v -0.354358 0.950000 0.450000
vt 0.748874 0.499816
vt 0.748874 0.745922
vt 0.502768 0.745923
vt 0.502768 0.499817
vt 0.010556 0.745923
vt 0.010556 0.499817
vt 0.256662 0.499817
vt 0.256662 0.745923
vt 0.256662 0.007605
vt 0.502768 0.007605
vt 0.502768 0.253711
vt 0.256662 0.253711
vt 0.502768 0.992029
vt 0.256662 0.992029
vt 0.486231 0.253711
vt 0.486231 0.007605
vt 0.486231 0.992029
vt 0.486231 0.745923
vt 0.486231 0.499817
vt 0.463695 0.253711
vt 0.463695 0.007605
vt 0.463695 0.992029
vt 0.463695 0.745923
vt 0.463695 0.499817
vt 0.272496 0.253711
vt 0.272496 0.007605
vt 0.272496 0.992029
vt 0.272496 0.745923
vt 0.272496 0.499817
vt 0.290272 0.253711
vt 0.290272 0.499817
vt 0.290272 0.745923
vt 0.290272 0.007605
vt 0.290272 0.992029
vt 0.463695 0.253711
vt 0.463695 0.007605
vt 0.486231 0.007605
vt 0.486231 0.253711
vt 0.463695 0.992029
vt 0.463695 0.745923
vt 0.486231 0.745923
vt 0.486231 0.992029
vt 0.463695 0.499817
vt 0.486231 0.499817
vt 0.272496 0.253711
vt 0.272496 0.007605
vt 0.290272 0.007605
vt 0.290272 0.253711
vt 0.272496 0.992029
vt 0.272496 0.745923
vt 0.290272 0.745923
vt 0.290272 0.992029
vt 0.272496 0.499817
vt 0.290272 0.499817
vn 0.000000 0.000000 1.000000
vn 0.000000 0.000000 1.000000
vn 0.000000 0.000000 1.000000
vn 0.000000 0.000000 1.000000
vn 0.000000 1.000000 0.000000
vn 0.000000 1.000000 0.000000
vn 0.000000 1.000000 0.000000
vn 0.000000 1.000000 0.000000
vn 0.000000 0.000000 -1.000000
vn 0.000000 0.000000 -1.000000
vn 0.000000 0.000000 -1.000000
vn 0.000000 0.000000 -1.000000
vn 0.000000 -1.000000 0.000000
vn 0.000000 -1.000000 0.000000
vn 0.000000 -1.000000 0.000000
vn 0.000000 -1.000000 0.000000
vn 1.000000 0.000000 0.000000
vn 1.000000 0.000000 0.000000
vn 1.000000 0.000000 0.000000
vn 1.000000 0.000000 0.000000
vn -1.000000 0.000000 0.000000
vn -1.000000 0.000000 0.000000
vn -1.000000 0.000000 0.000000
vn -1.000000 0.000000 0.000000
vn 0.000000 -1.000000 0.000000
vn 0.000000 -1.000000 0.000000
vn 0.000000 -1.000000 0.000000
vn 0.000000 -1.000000 0.000000
vn 0.000000 0.000000 -1.000000
vn 0.000000 0.000000 -1.000000
vn 0.000000 0.000000 -1.000000
vn 0.000000 0.000000 -1.000000
vn 0.000000 1.000000 0.000000
vn 0.000000 1.000000 0.000000
vn 0.000000 1.000000 0.000000
vn 0.000000 1.000000 0.000000
vn 0.000000 0.000000 1.000000
vn 0.000000 0.000000 1.000000
vn 0.000000 0.000000 1.000000
vn 0.000000 0.000000 1.000000
vn 0.000000 -1.000000 0.000000
vn 0.000000 -1.000000 0.000000
vn 0.000000 -1.000000 0.000000
vn 0.000000 -1.000000 0.000000
vn 0.000000 0.000000 -1.000000
vn 0.000000 0.000000 -1.000000
vn 0.000000 0.000000 -1.000000
vn 0.000000 0.000000 -1.000000
vn 0.000000 1.000000 0.000000
vn 0.000000 1.000000 0.000000
vn 0.000000 1.000000 0.000000
vn 0.000000 1.000000 0.000000
vn 0.000000 0.000000 1.000000
vn 0.000000 0.000000 1.000000
vn 0.000000 0.000000 1.000000
vn 0.000000 0.000000 1.000000
vn 0.000000 -1.000000 0.000000
vn 0.000000 -1.000000 0.000000
vn 0.000000 -1.000000 0.000000
vn 0.000000 -1.000000 0.000000
vn 0.000000 0.000000 -1.000000
vn 0.000000 0.000000 -1.000000
vn 0.000000 0.000000 -1.000000
vn 0.000000 0.000000 -1.000000
vn 0.000000 1.000000 0.000000
vn 0.000000 1.000000 0.000000
vn 0.000000 1.000000 0.000000
vn 0.000000 1.000000 0.000000
vn 0.000000 0.000000 1.000000
vn 0.000000 0.000000 1.000000
vn 0.000000 0.000000 1.000000
vn 0.000000 0.000000 1.000000
vn 0.000000 0.000000 1.000000
vn 0.000000 0.000000 1.000000
vn 0.000000 0.000000 1.000000
vn 0.000000 0.000000 1.000000
vn 0.000000 1.000000 0.000000
vn 0.000000 1.000000 0.000000
vn 0.000000 1.000000 0.000000
vn 0.000000 1.000000 0.000000
vn 0.000000 0.000000 -1.000000
vn 0.000000 0.000000 -1.000000
vn 0.000000 0.000000 -1.000000
vn 0.000000 0.000000 -1.000000
vn 0.000000 -1.000000 0.000000
vn 0.000000 -1.000000 0.000000
vn 0.000000 -1.000000 0.000000
vn 0.000000 -1.000000 0.000000
vn 1.000000 -0.000000 0.000000
vn 1.000000 -0.000000 0.000000
vn 1.000000 -0.000000 0.000000
vn 1.000000 -0.000000 0.000000
vn -1.000000 -0.000000 0.000000
vn -1.000000 -0.000000 0.000000
vn -1.000000 -0.000000 0.000000
vn -1.000000 -0.000000 0.000000
vn 1.000000 0.000000 0.000000
vn 1.000000 0.000000 0.000000
vn -1.000000 0.000000 0.000000
vn -1.000000 0.000000 0.000000
vn 1.000000 0.000000 0.000000
vn 1.000000 0.000000 0.000000
vn -1.000000 0.000000 0.000000
vn -1.000000 0.000000 0.000000
vn 1.000000 0.000000 0.000000
vn 1.000000 0.000000 0.000000
vn 1.000000 0.000000 0.000000
vn 1.000000 0.000000 0.000000
vn -1.000000 0.000000 0.000000
vn -1.000000 0.000000 0.000000
vn -1.000000 0.000000 0.000000
vn -1.000000 0.000000 0.000000
vn 1.000000 -0.000000 0.000000
vn 1.000000 -0.000000 0.000000
vn -1.000000 -0.000000 0.000000
vn -1.000000 -0.000000 0.000000
vn 1.000000 -0.000000 0.000000
vn 1.000000 -0.000000 0.000000
vn -1.000000 -0.000000 0.000000
vn -1.000000 -0.000000 0.000000
s off
g pCube1
usemtl lambert2SG
f 12/19/1 9/15/2 2/11/3 4/4/4
f 11/18/5 12/19/6 4/4/7 6/3/8
f 10/17/9 11/18/10 6/3/11 8/13/12
f 9/15/13 10/16/14 8/10/15 2/11/16
f 2/1/17 8/2/18 6/3/19 4/4/20
f 7/5/21 1/6/22 3/7/23 5/8/24
f 25/35/25 26/36/26 27/37/27 28/38/28
f 26/39/29 29/40/30 30/41/31 27/42/32
f 29/40/33 31/43/34 32/44/35 30/41/36
f 31/43/37 25/35/38 28/38/39 32/44/40
f 33/45/41 34/46/42 35/47/43 36/48/44
f 34/49/45 37/50/46 38/51/47 35/52/48
f 37/50/49 39/53/50 40/54/51 38/51/52
f 39/53/53 33/45/54 36/48/55 40/54/56
f 7/9/57 18/26/58 17/25/59 1/12/60
f 5/8/61 19/28/62 18/27/63 7/14/64
f 3/7/65 20/29/66 19/28/67 5/8/68
f 1/12/69 17/25/70 20/29/71 3/7/72
f 22/31/73 21/30/74 13/20/75 16/24/76
f 23/32/77 22/31/78 16/24/79 15/23/80
f 24/34/81 23/32/82 15/23/83 14/22/84
f 21/30/85 24/33/86 14/21/87 13/20/88
s 1
f 13/20/89 14/21/90 26/36/91 25/35/92
s 2
f 10/16/93 9/15/94 28/38/95 27/37/96
s 1
f 14/22/90 15/23/97 29/40/98 26/39/91
s 2
f 11/18/99 10/17/93 27/42/96 30/41/100
s 1
f 15/23/97 16/24/101 31/43/102 29/40/98
s 2
f 12/19/103 11/18/99 30/41/100 32/44/104
s 1
f 16/24/101 13/20/89 25/35/92 31/43/102
s 2
f 9/15/94 12/19/103 32/44/104 28/38/95
s 3
f 17/25/105 18/26/106 34/46/107 33/45/108
s 4
f 24/33/109 21/30/110 36/48/111 35/47/112
s 3
f 18/27/106 19/28/113 37/50/114 34/49/107
s 4
f 23/32/115 24/34/109 35/52/112 38/51/116
s 3
f 19/28/113 20/29/117 39/53/118 37/50/114
s 4
f 22/31/119 23/32/115 38/51/116 40/54/120
s 3
f 20/29/117 17/25/105 33/45/108 39/53/118
s 4
f 21/30/110 22/31/119 40/54/120 36/48/111
