# This file uses centimeters as units for non-parametric coordinates.

mtllib bottone.mtl
g default
v 0.228741 0.323919 -0.074322
v 0.194579 0.323919 -0.141370
v 0.141370 0.323919 -0.194579
v 0.074322 0.323919 -0.228741
v -0.000000 0.323919 -0.240513
v -0.074322 0.323919 -0.228741
v -0.141370 0.323919 -0.194579
v -0.194579 0.323919 -0.141370
v -0.228741 0.323919 -0.074322
v -0.240513 0.323919 -0.000000
v -0.228741 0.323919 0.074322
v -0.194579 0.323919 0.141370
v -0.141370 0.323919 0.194579
v -0.074322 0.323919 0.228741
v -0.000000 0.323919 0.240513
v 0.074322 0.323919 0.228741
v 0.141370 0.323919 0.194579
v 0.194579 0.323919 0.141370
v 0.228741 0.323919 0.074322
v 0.240512 0.323919 -0.000000
v 0.228741 0.711021 -0.074322
v 0.194579 0.711021 -0.141370
v 0.141370 0.711021 -0.194579
v 0.074322 0.711021 -0.228741
v -0.000000 0.711021 -0.240513
v -0.074322 0.711021 -0.228741
v -0.141370 0.711021 -0.194579
v -0.194579 0.711021 -0.141370
v -0.228741 0.711021 -0.074322
v -0.240513 0.711021 -0.000000
v -0.228741 0.711021 0.074322
v -0.194579 0.711021 0.141370
v -0.141370 0.711021 0.194579
v -0.074322 0.711021 0.228741
v -0.000000 0.711021 0.240513
v 0.074322 0.711021 0.228741
v 0.141370 0.711021 0.194579
v 0.194579 0.711021 0.141370
v 0.228741 0.711021 0.074322
v 0.240512 0.711021 -0.000000
v 0.388980 0.775907 -0.126387
v 0.318147 0.837542 -0.103372
v 0.334519 0.837542 -0.000000
v 0.408997 0.775907 0.000000
v 0.330886 0.775907 -0.240403
v 0.270632 0.837542 -0.196625
v 0.240403 0.775907 -0.330886
v 0.196625 0.837542 -0.270632
v 0.126387 0.775907 -0.388980
v 0.103372 0.837542 -0.318147
v 0.000000 0.775907 -0.408997
v 0.000000 0.837542 -0.334519
v -0.126387 0.775907 -0.388980
v -0.103372 0.837542 -0.318147
v -0.240403 0.775907 -0.330886
v -0.196625 0.837542 -0.270632
v -0.330886 0.775907 -0.240403
v -0.270632 0.837542 -0.196625
v -0.388980 0.775907 -0.126387
v -0.318147 0.837542 -0.103372
v -0.408997 0.775907 -0.000000
v -0.334519 0.837542 -0.000000
v -0.388980 0.775907 0.126387
v -0.318147 0.837542 0.103372
v -0.330886 0.775907 0.240403
v -0.270632 0.837542 0.196625
v -0.240403 0.775907 0.330886
v -0.196625 0.837542 0.270632
v -0.126387 0.775907 0.388980
v -0.103372 0.837542 0.318147
v 0.000000 0.775907 0.408997
v -0.000000 0.837542 0.334519
v 0.126387 0.775907 0.388980
v 0.103372 0.837542 0.318147
v 0.240403 0.775907 0.330886
v 0.196625 0.837542 0.270632
v 0.330886 0.775907 0.240403
v 0.270632 0.837542 0.196625
v 0.388980 0.775907 0.126387
v 0.318147 0.837542 0.103372
v 0.000000 0.837087 0.000000
vt 0.524861 0.657178
vt 0.524796 0.682737
vt 0.393313 0.682403
vt 0.393378 0.656844
vt 0.524731 0.708296
vt 0.393248 0.707962
vt 0.524926 0.631619
vt 0.393443 0.631285
vt 0.524991 0.606060
vt 0.393508 0.605726
vt 0.525056 0.580501
vt 0.393573 0.580167
vt 0.525120 0.554942
vt 0.393638 0.554608
vt 0.524406 0.836090
vt 0.524341 0.861649
vt 0.392859 0.861315
vt 0.392924 0.835756
vt 0.524276 0.887208
vt 0.392794 0.886874
vt 0.524471 0.810531
vt 0.392989 0.810197
vt 0.524211 0.912767
vt 0.392729 0.912433
vt 0.524146 0.938326
vt 0.392664 0.937992
vt 0.524081 0.963885
vt 0.392599 0.963551
vt 0.937919 0.916416
vt 0.963164 0.934841
vt 0.932450 0.965699
vt 0.914134 0.940375
vt 0.953137 0.886280
vt 0.982840 0.896001
vt 0.893703 0.985556
vt 0.884109 0.955811
vt 0.850391 0.853309
vt 0.958297 0.852916
vt 0.989550 0.852983
vt 0.850717 0.992467
vt 0.850784 0.961214
vt 0.952894 0.819591
vt 0.982638 0.809997
vt 0.807698 0.985757
vt 0.817420 0.956054
vt 0.937458 0.789566
vt 0.962781 0.771250
vt 0.768859 0.966082
vt 0.787284 0.940837
vt 0.913499 0.765781
vt 0.931923 0.740536
vt 0.738001 0.935367
vt 0.763325 0.917051
vt 0.883363 0.750563
vt 0.893084 0.720860
vt 0.718144 0.896620
vt 0.747888 0.887026
vt 0.849999 0.745403
vt 0.850066 0.714150
vt 0.711233 0.853634
vt 0.742486 0.853701
vt 0.816673 0.750806
vt 0.807079 0.721061
vt 0.717943 0.810616
vt 0.747646 0.820337
vt 0.786649 0.766242
vt 0.768332 0.740918
vt 0.737618 0.771776
vt 0.762863 0.790201
vt 0.643346 0.209824
vt 0.638660 0.177086
vt 0.714456 0.153366
vt 0.722762 0.210688
vt 0.624086 0.147398
vt 0.688842 0.101416
vt 0.637686 0.242409
vt 0.712949 0.267771
vt 0.601051 0.123666
vt 0.648428 0.059924
vt 0.622234 0.271650
vt 0.685976 0.319027
vt 0.571810 0.108215
vt 0.597171 0.032951
vt 0.598503 0.294684
vt 0.644484 0.359440
vt 0.539226 0.102555
vt 0.540087 0.023139
vt 0.568814 0.309258
vt 0.592534 0.385054
vt 0.506489 0.107242
vt 0.482765 0.031447
vt 0.536076 0.313944
vt 0.535212 0.393360
vt 0.476802 0.121817
vt 0.430816 0.057063
vt 0.503493 0.308284
vt 0.478128 0.383545
vt 0.453073 0.144851
vt 0.389328 0.097478
vt 0.474253 0.292831
vt 0.426872 0.356571
vt 0.437623 0.174092
vt 0.362360 0.148733
vt 0.451221 0.269100
vt 0.386461 0.315077
vt 0.431966 0.206675
vt 0.352549 0.205811
vt 0.436650 0.239412
vt 0.360852 0.263128
vt 0.524666 0.733855
vt 0.393183 0.733521
vt 0.524601 0.759414
vt 0.393119 0.759080
vt 0.524536 0.784973
vt 0.393054 0.784638
vt 0.524016 0.989444
vt 0.393833 0.477931
vt 0.525250 0.503824
vt 0.393768 0.503490
vt 0.525185 0.529383
vt 0.393703 0.529049
vt 0.525315 0.478265
vt 0.392534 0.989110
vn 0.606348 0.770407 -0.197014
vn 0.606348 0.770407 -0.197014
vn 0.637553 0.770407 0.000001
vn 0.637553 0.770407 0.000001
vn 0.515790 0.770407 -0.374744
vn 0.515790 0.770407 -0.374744
vn 0.374744 0.770407 -0.515791
vn 0.374744 0.770407 -0.515791
vn 0.197014 0.770407 -0.606349
vn 0.197014 0.770407 -0.606349
vn 0.000000 0.770407 -0.637553
vn 0.000000 0.770407 -0.637553
vn -0.197015 0.770407 -0.606348
vn -0.197015 0.770407 -0.606348
vn -0.374744 0.770407 -0.515791
vn -0.374744 0.770407 -0.515790
vn -0.515790 0.770407 -0.374744
vn -0.515790 0.770407 -0.374744
vn -0.606348 0.770407 -0.197014
vn -0.606348 0.770407 -0.197014
vn -0.637552 0.770407 -0.000000
vn -0.637552 0.770407 -0.000000
vn -0.606348 0.770407 0.197015
vn -0.606348 0.770407 0.197015
vn -0.515791 0.770407 0.374744
vn -0.515791 0.770407 0.374744
vn -0.374744 0.770407 0.515791
vn -0.374744 0.770407 0.515791
vn -0.197015 0.770407 0.606348
vn -0.197015 0.770407 0.606348
vn 0.000000 0.770407 0.637552
vn 0.000000 0.770407 0.637552
vn 0.197015 0.770407 0.606349
vn 0.197015 0.770407 0.606349
vn 0.374744 0.770407 0.515791
vn 0.374744 0.770407 0.515791
vn 0.515791 0.770407 0.374744
vn 0.515791 0.770407 0.374744
vn 0.606349 0.770407 0.197015
vn 0.606349 0.770407 0.197015
vn 0.951057 0.000000 -0.309016
vn 0.809017 0.000000 -0.587785
vn 0.809017 0.000000 -0.587785
vn 0.951057 0.000000 -0.309016
vn 0.587785 0.000000 -0.809017
vn 0.587785 0.000000 -0.809017
vn 0.309017 0.000000 -0.951057
vn 0.309017 0.000000 -0.951057
vn -0.000000 0.000000 -1.000000
vn -0.000000 0.000000 -1.000000
vn -0.309017 0.000000 -0.951056
vn -0.309017 0.000000 -0.951056
vn -0.587785 0.000000 -0.809017
vn -0.587785 0.000000 -0.809017
vn -0.809017 0.000000 -0.587785
vn -0.809017 0.000000 -0.587785
vn -0.951057 0.000000 -0.309017
vn -0.951057 0.000000 -0.309017
vn -1.000000 0.000000 0.000000
vn -1.000000 0.000000 0.000000
vn -0.951057 0.000000 0.309017
vn -0.951057 0.000000 0.309017
vn -0.809017 0.000000 0.587785
vn -0.809017 0.000000 0.587785
vn -0.587785 0.000000 0.809017
vn -0.587785 0.000000 0.809017
vn -0.309017 0.000000 0.951057
vn -0.309017 0.000000 0.951057
vn 0.000000 0.000000 1.000000
vn 0.000000 0.000000 1.000000
vn 0.309017 0.000000 0.951056
vn 0.309017 0.000000 0.951056
vn 0.587785 0.000000 0.809017
vn 0.587785 0.000000 0.809017
vn 0.809017 0.000000 0.587785
vn 0.809017 0.000000 0.587785
vn 0.951057 0.000000 0.309017
vn 0.951057 0.000000 0.309017
vn 1.000000 0.000000 0.000001
vn 1.000000 0.000000 0.000001
vn -0.001293 0.999999 0.000420
vn -0.001099 0.999999 0.000799
vn -0.000000 1.000000 -0.000000
vn -0.000799 0.999999 0.001099
vn -0.000420 0.999999 0.001293
vn -0.000000 0.999999 0.001359
vn 0.000420 0.999999 0.001292
vn 0.000799 0.999999 0.001099
vn 0.001100 0.999999 0.000799
vn 0.001292 0.999999 0.000420
vn 0.001359 0.999999 0.000000
vn 0.001293 0.999999 -0.000420
vn 0.001100 0.999999 -0.000799
vn 0.000799 0.999999 -0.001100
vn 0.000420 0.999999 -0.001293
vn 0.000000 0.999999 -0.001359
vn -0.000420 0.999999 -0.001293
vn -0.000799 0.999999 -0.001099
vn -0.001100 0.999999 -0.000799
vn -0.001293 0.999999 -0.000420
vn -0.001359 0.999999 0.000000
vn 0.359387 -0.933189 0.000000
vn 0.341797 -0.933189 -0.111056
vn 0.341797 -0.933189 -0.111056
vn 0.359387 -0.933189 0.000000
vn 0.290750 -0.933189 -0.211242
vn 0.290750 -0.933189 -0.211242
vn 0.211242 -0.933189 -0.290750
vn 0.211242 -0.933189 -0.290750
vn 0.111057 -0.933189 -0.341797
vn 0.111057 -0.933189 -0.341797
vn -0.000000 -0.933189 -0.359387
vn -0.000000 -0.933189 -0.359387
vn -0.111057 -0.933189 -0.341797
vn -0.111057 -0.933189 -0.341797
vn -0.211243 -0.933189 -0.290750
vn -0.211243 -0.933189 -0.290750
vn -0.290751 -0.933188 -0.211242
vn -0.290751 -0.933188 -0.211242
vn -0.341798 -0.933188 -0.111057
vn -0.341798 -0.933188 -0.111057
vn -0.359388 -0.933188 -0.000000
vn -0.359388 -0.933188 -0.000000
vn -0.341798 -0.933188 0.111056
vn -0.341798 -0.933188 0.111056
vn -0.290750 -0.933189 0.211242
vn -0.290750 -0.933189 0.211242
vn -0.211242 -0.933189 0.290750
vn -0.211242 -0.933189 0.290750
vn -0.111056 -0.933189 0.341797
vn -0.111056 -0.933189 0.341797
vn -0.000000 -0.933189 0.359387
vn -0.000000 -0.933189 0.359387
vn 0.111056 -0.933189 0.341797
vn 0.111056 -0.933189 0.341797
vn 0.211242 -0.933189 0.290750
vn 0.211242 -0.933189 0.290750
vn 0.290750 -0.933189 0.211242
vn 0.290750 -0.933189 0.211242
vn 0.341797 -0.933189 0.111057
vn 0.341797 -0.933189 0.111057
s 1
g bottone
usemtl initialShadingGroup
f 41/34/1 42/33/2 43/38/3 44/39/4
f 42/33/2 41/34/1 45/30/5 46/29/6
f 46/29/6 45/30/5 47/31/7 48/32/8
f 48/32/8 47/31/7 49/35/9 50/36/10
f 50/36/10 49/35/9 51/40/11 52/41/12
f 52/41/12 51/40/11 53/44/13 54/45/14
f 54/45/14 53/44/13 55/48/15 56/49/16
f 56/49/16 55/48/15 57/52/17 58/53/18
f 58/53/18 57/52/17 59/56/19 60/57/20
f 60/57/20 59/56/19 61/60/21 62/61/22
f 62/61/22 61/60/21 63/64/23 64/65/24
f 64/65/24 63/64/23 65/68/25 66/69/26
f 66/69/26 65/68/25 67/67/27 68/66/28
f 68/66/28 67/67/27 69/63/29 70/62/30
f 70/62/30 69/63/29 71/59/31 72/58/32
f 72/58/32 71/59/31 73/55/33 74/54/34
f 74/54/34 73/55/33 75/51/35 76/50/36
f 76/50/36 75/51/35 77/47/37 78/46/38
f 78/46/38 77/47/37 79/43/39 80/42/40
f 80/42/40 79/43/39 44/39/4 43/38/3
s 2
f 1/1/41 2/2/42 22/3/43 21/4/44
f 2/2/42 3/5/45 23/6/46 22/3/43
f 3/5/45 4/110/47 24/111/48 23/6/46
f 4/110/47 5/112/49 25/113/50 24/111/48
f 5/112/49 6/114/51 26/115/52 25/113/50
f 6/114/51 7/21/53 27/22/54 26/115/52
f 7/21/53 8/15/55 28/18/56 27/22/54
f 8/15/55 9/16/57 29/17/58 28/18/56
f 9/16/57 10/19/59 30/20/60 29/17/58
f 10/19/59 11/23/61 31/24/62 30/20/60
f 11/23/61 12/25/63 32/26/64 31/24/62
f 12/25/63 13/27/65 33/28/66 32/26/64
f 13/27/65 14/116/67 34/123/68 33/28/66
f 14/122/67 15/118/69 35/119/70 34/117/68
f 15/118/69 16/120/71 36/121/72 35/119/70
f 16/120/71 17/13/73 37/14/74 36/121/72
f 17/13/73 18/11/75 38/12/76 37/14/74
f 18/11/75 19/9/77 39/10/78 38/12/76
f 19/9/77 20/7/79 40/8/80 39/10/78
f 20/7/79 1/1/41 21/4/44 40/8/80
s 3
f 42/33/81 46/29/82 81/37/83
f 46/29/82 48/32/84 81/37/83
f 48/32/84 50/36/85 81/37/83
f 50/36/85 52/41/86 81/37/83
f 52/41/86 54/45/87 81/37/83
f 54/45/87 56/49/88 81/37/83
f 56/49/88 58/53/89 81/37/83
f 58/53/89 60/57/90 81/37/83
f 60/57/90 62/61/91 81/37/83
f 62/61/91 64/65/92 81/37/83
f 64/65/92 66/69/93 81/37/83
f 66/69/93 68/66/94 81/37/83
f 68/66/94 70/62/95 81/37/83
f 70/62/95 72/58/96 81/37/83
f 72/58/96 74/54/97 81/37/83
f 74/54/97 76/50/98 81/37/83
f 76/50/98 78/46/99 81/37/83
f 78/46/99 80/42/100 81/37/83
f 80/42/100 43/38/101 81/37/83
f 43/38/101 42/33/81 81/37/83
s 4
f 40/70/102 21/71/103 41/72/104 44/73/105
f 21/71/103 22/74/106 45/75/107 41/72/104
f 22/74/106 23/78/108 47/79/109 45/75/107
f 23/78/108 24/82/110 49/83/111 47/79/109
f 24/82/110 25/86/112 51/87/113 49/83/111
f 25/86/112 26/90/114 53/91/115 51/87/113
f 26/90/114 27/94/116 55/95/117 53/91/115
f 27/94/116 28/98/118 57/99/119 55/95/117
f 28/98/118 29/102/120 59/103/121 57/99/119
f 29/102/120 30/106/122 61/107/123 59/103/121
f 30/106/122 31/108/124 63/109/125 61/107/123
f 31/108/124 32/104/126 65/105/127 63/109/125
f 32/104/126 33/100/128 67/101/129 65/105/127
f 33/100/128 34/96/130 69/97/131 67/101/129
f 34/96/130 35/92/132 71/93/133 69/97/131
f 35/92/132 36/88/134 73/89/135 71/93/133
f 36/88/134 37/84/136 75/85/137 73/89/135
f 37/84/136 38/80/138 77/81/139 75/85/137
f 38/80/138 39/76/140 79/77/141 77/81/139
f 39/76/140 40/70/102 44/73/105 79/77/141
