# This file uses centimeters as units for non-parametric coordinates.

mtllib tagliola bassa.mtl
g default
v -1.013383 0.119733 0.081408
v -1.013533 0.176485 0.057900
v -1.013682 0.233238 0.081408
v -1.013743 0.256746 0.138161
v -1.013682 0.233238 0.194914
v -1.013533 0.176485 0.218422
v -1.013383 0.119733 0.194914
v -1.013321 0.096225 0.138161
v 1.013681 0.125055 0.081408
v 1.013532 0.181807 0.057900
v 1.013383 0.238560 0.081408
v 1.013321 0.262068 0.138161
v 1.013383 0.238560 0.194914
v 1.013532 0.181807 0.218422
v 1.013681 0.125055 0.194914
v 1.013743 0.101547 0.138161
v -0.729431 0.303327 -0.000000
v -0.693730 0.303327 0.277808
v -0.590122 0.303327 0.481151
v -0.428749 0.303327 0.642524
v -0.225407 0.303327 0.746132
v -0.000000 0.303327 0.781833
v 0.225407 0.303327 0.746132
v 0.428749 0.303327 0.642524
v 0.590122 0.303327 0.481151
v 0.693730 0.303327 0.277808
v 0.729431 0.303327 -0.000000
v -0.918253 0.321088 0.346121
v -0.786012 0.568606 0.605659
v -0.580041 0.321088 0.811629
v -0.320504 0.568606 0.943870
v -0.000000 0.321088 0.989438
v 0.320504 0.568606 0.943870
v 0.580041 0.321088 0.811629
v 0.786012 0.568606 0.605659
v 0.918253 0.321088 0.346121
v -0.798465 0.461622 0.331593
v -0.684114 0.709139 0.556020
v -0.506009 0.461622 0.734125
v -0.281582 0.709139 0.848476
v -0.000000 0.461622 0.887879
v 0.281582 0.709139 0.848476
v 0.506009 0.461622 0.734125
v 0.684114 0.709139 0.556020
v 0.798465 0.461622 0.331593
v -1.000000 0.033098 0.000000
v -0.951057 0.033098 0.309017
v -0.809017 0.033098 0.587785
v -0.587785 0.033098 0.809017
v -0.309017 0.033098 0.951057
v -0.000000 0.033098 1.000000
v 0.309017 0.033098 0.951057
v 0.587785 0.033098 0.809017
v 0.809017 0.033098 0.587785
v 0.951057 0.033098 0.309017
v 1.000000 0.033098 0.000000
v -0.633927 0.332965 0.000749
v -0.602615 0.332731 0.248939
v -0.512126 0.329818 0.424451
v -0.371710 0.329922 0.564811
v -0.195469 0.327847 0.653923
v -0.000000 0.328818 0.685136
v 0.195469 0.327847 0.653923
v 0.371710 0.329922 0.564811
v 0.512126 0.329818 0.424451
v 0.602615 0.332731 0.248938
v 0.633927 0.332965 0.000749
v -0.645990 0.034030 0.033109
v -0.612466 0.034515 0.273441
v -0.518192 0.032519 0.451127
v -0.374663 0.033283 0.591077
v -0.196602 0.031681 0.679693
v -0.000000 0.032766 0.710350
v 0.196602 0.031681 0.679693
v 0.374663 0.033283 0.591077
v 0.518192 0.032519 0.451127
v 0.612465 0.034515 0.273441
v 0.645990 0.034030 0.033109
vt 0.946844 0.025717
vt 0.967332 0.025721
vt 0.967212 0.701792
vt 0.946724 0.701789
vt 0.823918 0.025695
vt 0.987700 0.701796
vt 0.864893 0.025703
vt 0.885381 0.025707
vt 0.885261 0.701778
vt 0.864773 0.701774
vt 0.905869 0.025710
vt 0.905748 0.701781
vt 0.490505 0.256003
vt 0.470132 0.206817
vt 0.490505 0.157632
vt 0.539690 0.137258
vt 0.539690 0.276376
vt 0.588876 0.157632
vt 0.588876 0.256003
vt 0.609249 0.206817
vt 0.089664 0.812216
vt 0.040478 0.791843
vt 0.159223 0.742658
vt 0.138849 0.791843
vt 0.020105 0.742658
vt 0.138849 0.693472
vt 0.040478 0.693472
vt 0.089664 0.673099
vt 0.926357 0.025714
vt 0.926236 0.701785
vt 0.844406 0.025699
vt 0.844285 0.701770
vt 0.987820 0.025725
vt 0.823797 0.701767
vt 0.110782 0.492889
vt 0.036849 0.455170
vt 0.154312 0.412499
vt 0.172056 0.459178
vt 0.074902 0.381408
vt 0.141436 0.364249
vt 0.010464 0.329095
vt 0.134126 0.314849
vt 0.063164 0.264973
vt 0.131403 0.264986
vt 0.010488 0.200832
vt 0.134145 0.215123
vt 0.074945 0.148543
vt 0.141473 0.165726
vt 0.036919 0.074767
vt 0.154367 0.117481
vt 0.110866 0.037075
vt 0.172128 0.070809
vt 0.549991 0.960876
vt 0.552241 0.892451
vt 0.700364 0.897322
vt 0.639971 0.963834
vt 0.554491 0.824027
vt 0.644471 0.826985
vt 0.556741 0.755602
vt 0.704864 0.760473
vt 0.558991 0.687178
vt 0.648971 0.690136
vt 0.561241 0.618753
vt 0.709364 0.623624
vt 0.563491 0.550328
vt 0.653471 0.553287
vt 0.565741 0.481904
vt 0.713864 0.486775
vt 0.567991 0.413479
vt 0.657971 0.416438
vt 0.357959 0.626516
vt 0.335778 0.539457
vt 0.365604 0.509273
vt 0.382474 0.590540
vt 0.253797 0.502709
vt 0.288172 0.479386
vt 0.263506 0.413395
vt 0.301216 0.397418
vt 0.196834 0.353177
vt 0.236778 0.345106
vt 0.234893 0.271797
vt 0.275848 0.271877
vt 0.191266 0.193260
vt 0.232000 0.201406
vt 0.252546 0.127563
vt 0.291751 0.143798
vt 0.239183 0.038722
vt 0.275743 0.062357
vt 0.038412 0.574685
vt 0.097913 0.589384
vt 0.089126 0.609424
vt 0.035952 0.596428
vt 0.139948 0.616344
vt 0.125491 0.632770
vt 0.172038 0.654607
vt 0.153397 0.666066
vt 0.191261 0.700697
vt 0.170021 0.705958
vt 0.195788 0.750429
vt 0.173946 0.749094
vt 0.185236 0.799239
vt 0.164795 0.791430
vt 0.160542 0.842645
vt 0.143435 0.829000
vt 0.124029 0.876713
vt 0.111681 0.858649
vt 0.079023 0.898352
vt 0.072743 0.877391
vt 0.018175 0.905694
vt 0.018382 0.883813
vt 0.730660 0.564735
vt 0.735675 0.510227
vt 0.801180 0.511117
vt 0.796503 0.564009
vt 0.739387 0.467172
vt 0.804717 0.467243
vt 0.741531 0.423781
vt 0.806698 0.423421
vt 0.743082 0.380592
vt 0.808131 0.379922
vt 0.742853 0.337279
vt 0.807863 0.336382
vt 0.741888 0.293975
vt 0.806931 0.292851
vt 0.739147 0.250845
vt 0.804299 0.249408
vt 0.735808 0.207530
vt 0.801110 0.205658
vt 0.730910 0.164594
vt 0.796365 0.161898
vt 0.724394 0.110244
vt 0.790232 0.109155
vt 0.146205 0.011649
vt 0.235902 0.019364
vt 0.088437 0.979747
vt 0.020650 0.989334
vt 0.731314 0.089485
vt 0.791510 0.031363
vt 0.799925 0.641736
vt 0.738150 0.585295
vt 0.157874 0.531760
vt 0.224207 0.548701
vt 0.209577 0.621749
vt 0.157896 0.609562
vt 0.185593 0.963139
vt 0.117273 0.967535
vt 0.131667 0.891076
vt 0.184710 0.888646
vt 0.282057 0.585311
vt 0.246377 0.645899
vt 0.249211 0.937847
vt 0.225338 0.871710
vt 0.325765 0.638005
vt 0.273954 0.680013
vt 0.301901 0.894134
vt 0.258742 0.843278
vt 0.351051 0.701626
vt 0.289645 0.720609
vt 0.338505 0.836280
vt 0.281663 0.806279
vt 0.355441 0.769946
vt 0.292333 0.764066
vt 0.051057 0.491970
vt 0.117172 0.509742
vt 0.235811 0.510646
vt 0.146111 0.518328
vn 0.001005 -0.382682 -0.923880
vn 0.001005 -0.382682 -0.923880
vn 0.001005 -0.382682 -0.923880
vn 0.001005 -0.382682 -0.923880
vn -0.001005 0.382683 -0.923879
vn -0.001005 0.382682 -0.923879
vn -0.001005 0.382683 -0.923879
vn -0.001005 0.382683 -0.923879
vn -0.002426 0.923876 -0.382685
vn -0.002426 0.923876 -0.382684
vn -0.002426 0.923876 -0.382685
vn -0.002426 0.923876 -0.382684
vn -0.002426 0.923876 0.382684
vn -0.002426 0.923876 0.382684
vn -0.002426 0.923876 0.382684
vn -0.002426 0.923876 0.382684
vn -0.001005 0.382683 0.923879
vn -0.001005 0.382683 0.923879
vn -0.001005 0.382683 0.923879
vn -0.001005 0.382683 0.923879
vn 0.001005 -0.382682 0.923880
vn 0.001005 -0.382682 0.923880
vn 0.001005 -0.382682 0.923880
vn 0.001005 -0.382682 0.923880
vn 0.002426 -0.923877 0.382682
vn 0.002426 -0.923877 0.382682
vn 0.002426 -0.923877 0.382682
vn 0.002426 -0.923877 0.382682
vn 0.002426 -0.923877 -0.382682
vn 0.002426 -0.923877 -0.382682
vn 0.002426 -0.923877 -0.382682
vn 0.002426 -0.923877 -0.382682
vn 0.999997 0.002627 0.000000
vn 0.999997 0.002627 0.000000
vn 0.999997 0.002627 0.000000
vn 0.999997 0.002627 0.000000
vn 0.999997 0.002625 0.000000
vn 0.999997 0.002625 0.000000
vn 0.999997 0.002625 0.000000
vn 0.999997 0.002625 0.000000
vn 0.999997 0.002625 0.000000
vn 0.999997 0.002625 0.000000
vn 0.999997 0.002625 0.000000
vn 0.999997 0.002625 0.000000
vn -0.999997 -0.002626 0.000000
vn -0.999997 -0.002626 0.000000
vn -0.999997 -0.002626 0.000000
vn -0.999997 -0.002626 0.000000
vn -0.999997 -0.002632 0.000000
vn -0.999997 -0.002632 0.000000
vn -0.999997 -0.002632 0.000000
vn -0.999997 -0.002632 0.000000
vn -0.999997 -0.002633 -0.000000
vn -0.999997 -0.002633 -0.000000
vn -0.999997 -0.002633 -0.000000
vn -0.999997 -0.002633 -0.000000
vn 0.713072 0.384857 -0.586016
vn 0.747309 0.384559 -0.541888
vn 0.746550 0.384580 -0.542919
vn 0.713072 0.384857 -0.586016
vn 0.544153 0.397589 -0.738796
vn 0.531989 0.397179 -0.747821
vn 0.274359 0.361896 -0.890931
vn 0.276251 0.361580 -0.890475
vn -0.000000 0.374427 -0.927256
vn -0.000000 0.374427 -0.927256
vn -0.274359 0.361896 -0.890931
vn -0.276251 0.361580 -0.890475
vn -0.544153 0.397589 -0.738796
vn -0.531988 0.397179 -0.747822
vn -0.747310 0.384559 -0.541888
vn -0.746550 0.384580 -0.542919
vn -0.713072 0.384857 -0.586016
vn -0.713072 0.384857 -0.586016
vn -0.896305 0.031212 0.442338
vn -0.812061 0.020272 0.583221
vn -0.803040 0.019219 0.595615
vn -0.896305 0.031212 0.442338
vn -0.589923 0.005909 0.807438
vn -0.586290 0.005825 0.810080
vn -0.296253 0.011586 0.955039
vn -0.298419 0.011473 0.954366
vn 0.000000 0.019563 0.999809
vn 0.000000 0.019563 0.999809
vn 0.296253 0.011586 0.955039
vn 0.298419 0.011473 0.954366
vn 0.589922 0.005909 0.807438
vn 0.586290 0.005825 0.810080
vn 0.812061 0.020272 0.583221
vn 0.803040 0.019219 0.595615
vn 0.896305 0.031212 0.442338
vn 0.896305 0.031212 0.442338
vn -0.791459 0.580705 -0.190720
vn -0.791459 0.580705 -0.190720
vn -0.791460 0.580705 -0.190720
vn -0.791460 0.580705 -0.190720
vn -0.194385 0.502705 0.842320
vn -0.194385 0.502705 0.842320
vn -0.194385 0.502705 0.842320
vn -0.194385 0.502705 0.842320
vn -0.748294 0.538784 0.386998
vn -0.748294 0.538784 0.386998
vn -0.748294 0.538784 0.386998
vn -0.748294 0.538784 0.386998
vn 0.311625 0.515971 0.797912
vn 0.311625 0.515971 0.797912
vn 0.311625 0.515971 0.797912
vn 0.311625 0.515971 0.797912
vn -0.311625 0.515971 0.797912
vn -0.311625 0.515971 0.797912
vn -0.311625 0.515971 0.797912
vn -0.311625 0.515971 0.797912
vn 0.748294 0.538784 0.386999
vn 0.748294 0.538784 0.386999
vn 0.748294 0.538784 0.386999
vn 0.748294 0.538784 0.386999
vn 0.194385 0.502705 0.842320
vn 0.194385 0.502705 0.842320
vn 0.194385 0.502705 0.842320
vn 0.194385 0.502705 0.842320
vn 0.791459 0.580705 -0.190720
vn 0.791459 0.580705 -0.190720
vn 0.791459 0.580705 -0.190720
vn 0.791459 0.580705 -0.190720
vn -0.296187 0.954367 0.038158
vn -0.275365 0.957875 0.081552
vn -0.275591 0.957849 0.081089
vn -0.296187 0.954367 0.038158
vn -0.219485 0.962001 0.162422
vn -0.219486 0.962001 0.162421
vn -0.151761 0.965565 0.211311
vn -0.151524 0.965573 0.211444
vn -0.077422 0.967356 0.241304
vn -0.077428 0.967356 0.241302
vn 0.000000 0.968321 0.249708
vn -0.000000 0.968321 0.249708
vn 0.077422 0.967356 0.241303
vn 0.077428 0.967356 0.241302
vn 0.151761 0.965565 0.211311
vn 0.151524 0.965573 0.211444
vn 0.219485 0.962001 0.162422
vn 0.219486 0.962001 0.162421
vn 0.275365 0.957875 0.081552
vn 0.275590 0.957849 0.081089
vn 0.296187 0.954367 0.038158
vn 0.296187 0.954367 0.038158
vn 0.990128 -0.048844 -0.131383
vn 0.959565 -0.055853 -0.275891
vn 0.954911 -0.056551 -0.291456
vn 0.990128 -0.048844 -0.131383
vn 0.805717 -0.069266 -0.588237
vn 0.798151 -0.069698 -0.598413
vn 0.585076 -0.078434 -0.807177
vn 0.577480 -0.078656 -0.812607
vn 0.306830 -0.084117 -0.948040
vn 0.302220 -0.084176 -0.949514
vn 0.000000 -0.086070 -0.996289
vn 0.000000 -0.086070 -0.996289
vn -0.306830 -0.084118 -0.948040
vn -0.302220 -0.084176 -0.949514
vn -0.585076 -0.078434 -0.807177
vn -0.577480 -0.078656 -0.812607
vn -0.805717 -0.069266 -0.588237
vn -0.798151 -0.069698 -0.598412
vn -0.959565 -0.055853 -0.275891
vn -0.954911 -0.056551 -0.291456
vn -0.990128 -0.048844 -0.131383
vn -0.990128 -0.048844 -0.131383
vn 0.277065 0.148671 -0.949280
vn 0.277065 0.148671 -0.949280
vn 0.277065 0.148671 -0.949280
vn 0.277065 0.148671 -0.949280
vn 0.708668 0.698098 0.102219
vn 0.708668 0.698098 0.102219
vn 0.708668 0.698098 0.102219
vn 0.708668 0.698098 0.102219
vn -0.081298 -0.096770 -0.991981
vn -0.081298 -0.096770 -0.991981
vn -0.081298 -0.096770 -0.991981
vn -0.081298 -0.096770 -0.991981
vn 0.081298 -0.096770 -0.991981
vn 0.081298 -0.096770 -0.991981
vn 0.081298 -0.096770 -0.991981
vn 0.081298 -0.096770 -0.991981
vn -0.003392 -0.999994 0.000374
vn -0.003392 -0.999994 0.000374
vn -0.003392 -0.999994 0.000374
vn -0.003392 -0.999994 0.000374
vn 0.003392 -0.999994 0.000374
vn 0.003392 -0.999994 0.000374
vn 0.003392 -0.999994 0.000374
vn 0.003392 -0.999994 0.000374
vn -0.000118 -0.999990 -0.004433
vn -0.000118 -0.999990 -0.004433
vn -0.000118 -0.999990 -0.004433
vn -0.000118 -0.999990 -0.004433
vn 0.000118 -0.999990 -0.004433
vn 0.000118 -0.999990 -0.004433
vn 0.000118 -0.999990 -0.004433
vn 0.000118 -0.999990 -0.004433
vn -0.000412 -0.999999 0.001697
vn -0.000412 -0.999999 0.001697
vn -0.000412 -0.999999 0.001697
vn -0.000412 -0.999999 0.001697
vn 0.000412 -0.999999 0.001697
vn 0.000412 -0.999999 0.001697
vn 0.000412 -0.999999 0.001697
vn 0.000412 -0.999999 0.001697
vn 0.003576 -0.999994 0.000139
vn 0.003576 -0.999994 0.000139
vn 0.003576 -0.999994 0.000139
vn 0.003576 -0.999994 0.000139
vn -0.003576 -0.999994 0.000139
vn -0.003576 -0.999994 0.000139
vn -0.003576 -0.999994 0.000139
vn -0.003576 -0.999994 0.000139
vn -0.001604 -0.999993 0.003439
vn -0.001604 -0.999993 0.003439
vn -0.001604 -0.999993 0.003439
vn -0.001604 -0.999993 0.003439
vn 0.001604 -0.999993 0.003439
vn 0.001604 -0.999993 0.003439
vn 0.001604 -0.999993 0.003439
vn 0.001604 -0.999993 0.003439
vn -0.708668 0.698098 0.102219
vn -0.708668 0.698098 0.102219
vn -0.708668 0.698098 0.102219
vn -0.708668 0.698098 0.102219
vn -0.277065 0.148671 -0.949280
vn -0.277065 0.148671 -0.949280
vn -0.277065 0.148671 -0.949280
vn -0.277065 0.148671 -0.949280
s off
g vite1
usemtl initialShadingGroup
f 1/11/1 2/29/2 10/30/3 9/12/4
f 2/29/5 3/1/6 11/4/7 10/30/8
f 3/1/9 4/2/10 12/3/11 11/4/12
f 4/2/13 5/33/14 13/6/15 12/3/16
f 5/5/17 6/31/18 14/32/19 13/34/20
f 6/31/21 7/7/22 15/10/23 14/32/24
f 7/7/25 8/8/26 16/9/27 15/10/28
f 8/8/29 1/11/30 9/12/31 16/9/32
f 11/13/33 12/14/34 13/15/35 14/16/36
f 9/19/37 10/17/38 15/18/39 16/20/40
f 10/17/41 11/13/42 14/16/43 15/18/44
f 4/21/45 3/22/46 6/23/47 5/24/48
f 3/22/49 2/25/50 7/26/51 6/23/52
f 2/25/53 1/27/54 8/28/55 7/26/56
s 1
f 37/35/57 38/36/58 19/37/59 18/38/60
f 38/36/58 39/39/61 20/40/62 19/37/59
f 39/39/61 40/41/63 21/42/64 20/40/62
f 40/41/63 41/43/65 22/44/66 21/42/64
f 41/43/65 42/45/67 23/46/68 22/44/66
f 42/45/67 43/47/69 24/48/70 23/46/68
f 43/47/69 44/49/71 25/50/72 24/48/70
f 44/49/71 45/51/73 26/52/74 25/50/72
s 2
f 47/53/75 48/54/76 29/55/77 28/56/78
f 48/54/76 49/57/79 30/58/80 29/55/77
f 49/57/79 50/59/81 31/60/82 30/58/80
f 50/59/81 51/61/83 32/62/84 31/60/82
f 51/61/83 52/63/85 33/64/86 32/62/84
f 52/63/85 53/65/87 34/66/88 33/64/86
f 53/65/87 54/67/89 35/68/90 34/66/88
f 54/67/89 55/69/91 36/70/92 35/68/90
s off
f 28/71/93 29/72/94 38/73/95 37/74/96
f 29/72/97 30/75/98 39/76/99 38/73/100
f 30/75/101 31/77/102 40/78/103 39/76/104
f 31/77/105 32/79/106 41/80/107 40/78/108
f 32/79/109 33/81/110 42/82/111 41/80/112
f 33/81/113 34/83/114 43/84/115 42/82/116
f 34/83/117 35/85/118 44/86/119 43/84/120
f 35/85/121 36/87/122 45/88/123 44/86/124
s 3
f 17/89/125 18/90/126 58/91/127 57/92/128
f 18/90/126 19/93/129 59/94/130 58/91/127
f 19/93/129 20/95/131 60/96/132 59/94/130
f 20/95/131 21/97/133 61/98/134 60/96/132
f 21/97/133 22/99/135 62/100/136 61/98/134
f 22/99/135 23/101/137 63/102/138 62/100/136
f 23/101/137 24/103/139 64/104/140 63/102/138
f 24/103/139 25/105/141 65/106/142 64/104/140
f 25/105/141 26/107/143 66/108/144 65/106/142
f 26/107/143 27/109/145 67/110/146 66/108/144
s 4
f 57/111/147 58/112/148 69/113/149 68/114/150
f 58/112/148 59/115/151 70/116/152 69/113/149
f 59/115/151 60/117/153 71/118/154 70/116/152
f 60/117/153 61/119/155 72/120/156 71/118/154
f 61/119/155 62/121/157 73/122/158 72/120/156
f 62/121/157 63/123/159 74/124/160 73/122/158
f 63/123/159 64/125/161 75/126/162 74/124/160
f 64/125/161 65/127/163 76/128/164 75/126/162
f 65/127/163 66/129/165 77/130/166 76/128/164
f 66/129/165 67/131/167 78/132/168 77/130/166
s off
f 26/52/169 45/51/170 36/133/171 55/134/172
f 27/109/173 26/107/174 55/135/175 56/136/176
f 78/132/177 67/131/178 27/137/179 56/138/180
f 57/111/181 68/114/182 46/139/183 17/140/184
f 56/141/185 55/142/186 77/143/187 78/144/188
f 47/145/189 46/146/190 68/147/191 69/148/192
f 55/142/193 54/149/194 76/150/195 77/143/196
f 48/151/197 47/145/198 69/148/199 70/152/200
f 54/149/201 53/153/202 75/154/203 76/150/204
f 49/155/205 48/151/206 70/152/207 71/156/208
f 53/153/209 52/157/210 74/158/211 75/154/212
f 50/159/213 49/155/214 71/156/215 72/160/216
f 52/157/217 51/161/218 73/162/219 74/158/220
f 51/161/221 50/159/222 72/160/223 73/162/224
f 18/90/225 17/89/226 46/163/227 47/164/228
f 37/35/229 18/38/230 47/165/231 28/166/232
